<?xml version="1.0" standalone="no"?>
<!DOCTYPE svg PUBLIC "-//W3C//DTD SVG 20010904//EN"
 "http://www.w3.org/TR/2001/REC-SVG-20010904/DTD/svg10.dtd">
<svg version="1.0" xmlns="http://www.w3.org/2000/svg"
 width="1280.000000pt" height="812.000000pt" viewBox="0 0 1280.000000 812.000000"
 preserveAspectRatio="xMidYMid meet">
<metadata>
Created by potrace 1.15, written by Peter Selinger 2001-2017
</metadata>
<g transform="translate(0.000000,812.000000) scale(0.100000,-0.100000)"
fill="#000000" stroke="none">
<path d="M6720 8100 c-591 -10 -1662 -28 -2380 -39 -4358 -70 -4047 -64 -4116
-85 -104 -32 -178 -105 -207 -203 -9 -29 -14 -67 -11 -85 2 -18 22 -170 44
-338 45 -337 189 -1388 220 -1600 11 -74 47 -331 80 -570 173 -1241 478 -3373
491 -3430 16 -69 58 -138 130 -210 36 -36 68 -73 71 -82 21 -53 426 -275 1318
-721 971 -486 1388 -687 1465 -707 114 -29 238 -34 450 -16 105 9 282 23 395
31 113 8 291 22 395 30 272 21 919 71 1290 100 105 8 777 60 1495 115 718 55
1332 103 1365 105 33 3 179 14 325 25 146 12 378 29 515 40 138 11 372 29 520
40 334 25 713 55 1035 80 135 10 373 29 530 40 189 15 310 29 360 42 85 22
253 93 270 113 7 8 16 82 22 166 l10 151 -23 23 c-27 26 -3122 1145 -3219
1164 -30 6 -83 13 -118 17 -52 6 -63 10 -67 28 -5 21 -784 4705 -869 5226 -25
151 -52 295 -61 320 -33 94 -101 171 -195 221 -43 23 -55 24 -250 25 -113 1
-689 -6 -1280 -16z"/>
</g>
</svg>
