<?xml version="1.0" standalone="no"?>
<!DOCTYPE svg PUBLIC "-//W3C//DTD SVG 20010904//EN"
 "http://www.w3.org/TR/2001/REC-SVG-20010904/DTD/svg10.dtd">
<svg version="1.0" xmlns="http://www.w3.org/2000/svg"
 width="1280.000000pt" height="1272.000000pt" viewBox="0 0 1280.000000 1272.000000"
 preserveAspectRatio="xMidYMid meet">
<metadata>
Created by potrace 1.15, written by Peter Selinger 2001-2017
</metadata>
<g transform="translate(0.000000,1272.000000) scale(0.100000,-0.100000)"
fill="#000000" stroke="none">
<path d="M3460 12700 c-195 -15 -273 -26 -460 -64 -124 -26 -270 -62 -325 -81
-324 -111 -397 -141 -595 -240 -876 -438 -1539 -1194 -1865 -2125 -72 -206
-89 -267 -133 -490 -44 -223 -53 -286 -67 -498 -15 -224 -15 -263 0 -485 14
-210 23 -276 66 -497 45 -225 61 -284 136 -500 113 -325 231 -561 425 -850
147 -220 389 -510 527 -632 39 -35 96 -91 126 -126 30 -35 137 -135 237 -224
491 -433 1076 -725 1721 -857 219 -45 272 -52 501 -68 242 -16 270 -16 510 0
225 15 283 23 498 67 134 27 257 53 273 59 416 132 762 293 1060 495 99 67
185 126 192 129 7 5 23 -9 42 -36 25 -37 40 -48 88 -63 56 -18 67 -28 353
-329 1228 -1291 3117 -3302 4504 -4794 l460 -493 80 7 c78 6 85 9 196 78 224
139 541 441 696 663 69 99 77 115 85 174 5 36 8 73 9 82 0 25 -530 576 -1056
1098 -511 507 -829 813 -1839 1770 -1178 1117 -1864 1785 -2350 2289 -219 227
-306 311 -322 311 -16 0 -23 6 -23 20 0 25 -43 95 -67 108 -15 9 -10 21 50
110 117 177 276 511 367 772 69 196 88 266 130 476 43 215 52 276 67 498 16
238 16 267 0 509 -16 228 -23 284 -67 499 -40 197 -62 282 -120 448 -40 113
-75 216 -80 230 -4 14 -57 124 -118 245 -148 296 -319 551 -537 800 -87 99
-188 207 -226 240 -37 33 -94 90 -126 126 -32 36 -139 138 -239 226 -486 430
-1069 722 -1704 855 -205 43 -267 52 -490 68 -298 23 -286 23 -590 0z"/>
</g>
</svg>
