<?xml version="1.0" standalone="no"?>
<!DOCTYPE svg PUBLIC "-//W3C//DTD SVG 20010904//EN"
 "http://www.w3.org/TR/2001/REC-SVG-20010904/DTD/svg10.dtd">
<svg version="1.0" xmlns="http://www.w3.org/2000/svg"
 width="1280.000000pt" height="754.000000pt" viewBox="0 0 1280.000000 754.000000"
 preserveAspectRatio="xMidYMid meet">
<metadata>
Created by potrace 1.15, written by Peter Selinger 2001-2017
</metadata>
<g transform="translate(0.000000,754.000000) scale(0.100000,-0.100000)"
fill="#000000" stroke="none">
<path d="M6788 7525 c-56 -21 -116 -65 -241 -177 -271 -244 -333 -255 -702
-121 -121 44 -221 79 -223 78 -2 -2 22 -84 53 -184 31 -100 55 -185 53 -189
-3 -9 -227 -225 -1258 -1211 -404 -387 -748 -717 -765 -732 l-29 -29 27 -28
27 -28 -1341 -1290 c-739 -709 -1373 -1318 -1411 -1353 l-70 -64 -75 17 -75
18 -77 -76 -77 -77 -53 35 c-116 78 -216 75 -309 -9 -77 -69 -99 -122 -161
-385 -23 -95 -46 -178 -51 -185 -6 -8 9 -30 50 -70 l60 -59 -71 -72 -71 -71
92 -122 c105 -139 288 -327 436 -448 l100 -81 75 63 75 63 359 -370 358 -369
91 88 c50 48 139 135 197 191 l106 104 163 -154 c89 -84 168 -153 175 -153 7
0 397 380 866 845 470 464 922 911 1004 992 l150 147 115 41 c249 90 325 110
413 110 87 0 102 -8 347 -179 236 -166 373 -292 465 -431 35 -52 75 -108 88
-124 l24 -29 185 96 c473 245 949 568 1184 802 61 60 171 187 246 280 137 172
185 223 256 270 l40 26 68 -36 c38 -19 110 -67 159 -106 50 -38 257 -182 460
-319 1339 -899 1659 -1142 2434 -1839 113 -103 246 -222 296 -265 138 -120
205 -152 205 -96 0 18 6 16 58 -19 70 -47 110 -61 176 -61 114 0 211 77 383
304 59 78 147 179 197 226 319 301 455 478 594 770 70 146 95 216 128 360 103
445 -44 873 -390 1134 -253 191 -482 336 -1406 891 -377 226 -770 465 -875
530 -640 399 -987 662 -1092 828 -13 21 -51 95 -84 165 -43 92 -53 120 -37
106 13 -12 6 4 -18 41 -105 159 -150 388 -105 534 24 76 54 127 136 231 36 45
68 94 71 108 3 15 8 33 10 41 8 27 -18 93 -52 131 -20 22 -61 52 -92 67 -49
24 -69 27 -147 27 -49 0 -121 -6 -160 -13 -90 -17 -278 -9 -400 18 -163 36
-358 115 -500 204 -167 104 -339 271 -441 427 -65 102 -126 160 -208 202 -51
26 -139 32 -188 13z m-144 -3821 c741 -414 823 -859 249 -1356 -216 -187 -564
-428 -661 -458 -91 -28 -182 -34 -302 -20 -336 39 -707 217 -807 388 -22 38
-27 57 -26 111 4 262 338 674 643 794 83 33 135 26 177 -23 111 -130 194 -283
238 -435 15 -49 33 -142 42 -205 8 -63 20 -126 27 -140 17 -37 55 -37 90 -2
23 25 30 45 42 128 21 142 30 490 15 595 -18 118 -54 224 -101 294 -51 76 -53
120 -11 187 44 68 219 197 270 198 8 0 59 -25 115 -56z"/>
</g>
</svg>
